<svg id="svg" version="1.1" width="400" height="392.6788685524126" viewBox="0 0 400 392.6788685524126" xmlns="http://www.w3.org/2000/svg" xmlns:xlink="http://www.w3.org/1999/xlink" ><g id="svgg"><path id="path0" d="M189.023 0.367 C 96.388 5.170,18.510 74.546,3.026 166.057 C -10.468 245.811,23.589 323.338,91.847 368.242 C 104.350 376.468,115.353 381.909,116.319 380.345 C 116.648 379.813,116.507 379.711,110.649 376.258 C 68.034 351.136,41.736 311.508,35.198 262.562 C 33.948 253.209,34.778 233.411,36.956 220.632 C 51.106 137.589,127.602 71.583,209.734 71.549 L 214.309 71.547 214.309 86.805 L 214.309 102.062 207.903 102.263 C 152.272 104.009,100.687 139.244,78.211 190.849 C 60.660 231.145,65.797 282.155,91.238 320.210 C 117.308 359.205,154.919 381.951,206.323 389.811 C 227.674 393.075,259.401 393.681,259.401 390.825 C 259.401 390.211,258.989 390.174,250.083 389.969 C 166.949 388.062,113.091 356.304,88.737 294.828 C 68.522 243.801,79.392 192.422,118.802 152.719 C 157.718 113.514,214.540 101.309,266.389 121.019 C 268.505 121.823,268.984 120.222,261.933 135.940 L 255.814 149.584 250.565 147.829 C 232.985 141.949,212.983 140.813,194.343 144.636 C 147.032 154.338,111.402 198.145,111.421 246.589 C 111.450 323.973,188.112 375.127,290.204 365.885 C 306.307 364.427,318.136 362.466,318.136 361.255 C 318.136 360.466,317.284 360.418,311.908 360.902 C 236.390 367.698,186.605 355.151,152.239 320.660 C 126.562 294.889,116.677 264.253,123.437 231.396 C 140.858 146.721,249.769 125.075,297.538 196.793 C 299.349 199.513,300.832 201.931,300.832 202.166 C 300.832 202.490,283.377 212.019,275.304 216.102 L 274.235 216.643 272.353 213.785 C 242.848 168.981,174.034 176.656,156.792 226.673 C 150.116 246.041,152.291 269.225,162.158 283.860 C 190.904 326.501,245.321 340.833,338.935 330.419 C 354.734 328.662,352.094 329.925,359.036 320.799 C 426.214 232.474,408.584 106.496,319.716 39.827 C 282.350 11.796,236.367 -2.088,189.023 0.367 " stroke="none" fill="#64349c" fill-rule="evenodd"></path><path id="path1" d="" stroke="none" fill="#6c349c" fill-rule="evenodd"></path></g></svg>