<?xml version="1.0" encoding="UTF-8" standalone="no"?>
<!DOCTYPE svg PUBLIC "-//W3C//DTD SVG 20010904//EN"
              "http://www.w3.org/TR/2001/REC-SVG-20010904/DTD/svg10.dtd">

<svg xmlns="http://www.w3.org/2000/svg"
     width="2.77743in" height="2.66633in"
     viewBox="0 0 200 192">
  <path id="Selection"
        fill="black" stroke="black" stroke-width="1"
        d="M 124.00,51.00
           C 124.00,51.00 124.00,137.00 124.00,137.00
             124.00,137.00 37.00,137.00 37.00,137.00
             37.00,137.00 37.00,51.00 37.00,51.00
             37.00,51.00 124.00,51.00 124.00,51.00 Z
           M 157.00,51.00
           C 157.00,51.00 157.00,137.00 157.00,137.00
             157.00,137.00 144.00,137.00 144.00,137.00
             144.00,137.00 144.00,51.00 144.00,51.00
             144.00,51.00 157.00,51.00 157.00,51.00 Z
           M 47.00,61.00
           C 47.00,61.00 47.00,127.00 47.00,127.00
             47.00,127.00 113.00,127.00 113.00,127.00
             113.00,127.00 113.00,61.00 113.00,61.00
             113.00,61.00 47.00,61.00 47.00,61.00 Z" />
</svg>
