<?xml version="1.0" encoding="UTF-8" standalone="no"?>
<!DOCTYPE svg PUBLIC "-//W3C//DTD SVG 20010904//EN"
              "http://www.w3.org/TR/2001/REC-SVG-20010904/DTD/svg10.dtd">

<svg xmlns="http://www.w3.org/2000/svg"
     width="6.07778in" height="1.54444in"
     viewBox="0 0 547 139">
  <path id="Selection #1"
        fill="black" stroke="black" stroke-width="1"
        d="M 392.00,1.00
           C 396.22,1.63 401.12,3.11 405.00,4.90
             421.80,12.64 429.97,30.22 430.00,48.00
             430.00,48.00 430.00,70.00 430.00,70.00
             430.00,70.00 430.00,91.00 430.00,91.00
             429.97,109.83 421.59,126.50 404.00,134.68
             399.14,136.94 393.31,138.06 388.00,138.71
             382.34,139.41 376.59,138.96 371.00,137.91
             366.31,137.02 362.22,135.43 358.00,133.22
             329.34,118.19 333.96,82.15 334.00,55.00
             334.03,34.85 339.72,15.05 359.00,5.27
             365.29,2.08 369.23,1.54 376.00,0.43
             382.50,-0.38 385.63,0.06 392.00,1.00 Z
           M 474.00,115.13
           C 485.32,120.07 501.28,122.09 513.00,117.53
             520.24,114.72 526.49,109.12 527.21,101.00
             528.64,84.92 510.07,81.13 498.00,79.08
             491.07,77.90 475.75,74.75 470.00,71.47
             458.15,64.70 453.53,52.11 454.04,39.00
             454.21,34.52 455.45,28.18 457.07,24.00
             467.41,-2.74 505.27,-3.63 528.00,5.06
             534.61,7.59 539.00,10.65 545.00,14.00
             543.25,17.41 536.68,28.49 532.91,28.99
             530.80,29.26 521.41,23.50 518.00,22.23
             505.25,17.47 485.23,16.89 476.99,30.00
             475.00,33.17 473.82,37.25 474.20,41.00
             475.60,54.95 492.95,57.79 504.00,60.00
             521.13,63.43 539.80,66.75 545.56,86.00
             546.99,90.78 546.99,93.13 547.00,98.00
             547.01,104.37 547.14,107.82 544.91,114.00
             534.29,143.49 488.97,142.95 465.00,132.98
             458.72,130.37 453.70,126.56 448.00,123.00
             448.00,123.00 459.00,107.00 459.00,107.00
             464.51,108.83 468.65,112.79 474.00,115.13 Z
           M 104.00,1.00
           C 104.00,1.00 128.00,1.00 128.00,1.00
             128.00,1.00 134.40,2.02 134.40,2.02
             134.40,2.02 136.00,10.00 136.00,10.00
             136.00,10.00 136.00,137.00 136.00,137.00
             136.00,137.00 0.00,137.00 0.00,137.00
             0.00,137.00 0.00,1.00 0.00,1.00
             0.00,1.00 104.00,1.00 104.00,1.00 Z
           M 189.00,2.00
           C 189.00,2.00 189.00,137.00 189.00,137.00
             189.00,137.00 169.00,137.00 169.00,137.00
             169.00,137.00 169.00,2.00 169.00,2.00
             169.00,2.00 189.00,2.00 189.00,2.00 Z
           M 241.00,2.00
           C 241.00,2.00 241.00,47.00 241.00,47.00
             241.00,47.00 242.00,71.00 242.00,71.00
             242.00,71.00 255.79,52.00 255.79,52.00
             255.79,52.00 282.58,18.00 282.58,18.00
             282.58,18.00 296.17,2.60 296.17,2.60
             296.17,2.60 303.00,2.00 303.00,2.00
             303.00,2.00 320.00,2.00 320.00,2.00
             320.00,2.00 289.39,40.00 289.39,40.00
             289.39,40.00 278.55,55.00 278.55,55.00
             278.55,55.00 281.99,63.00 281.99,63.00
             281.99,63.00 290.80,78.00 290.80,78.00
             290.80,78.00 314.01,117.00 314.01,117.00
             314.01,117.00 325.00,137.00 325.00,137.00
             325.00,137.00 309.00,137.00 309.00,137.00
             299.21,136.98 300.64,136.41 291.40,121.00
             291.40,121.00 262.00,72.00 262.00,72.00
             262.00,72.00 241.74,99.00 241.74,99.00
             241.74,99.00 241.00,112.00 241.00,112.00
             241.00,112.00 241.00,137.00 241.00,137.00
             241.00,137.00 221.00,137.00 221.00,137.00
             221.00,137.00 221.00,2.00 221.00,2.00
             221.00,2.00 241.00,2.00 241.00,2.00 Z
           M 16.00,17.00
           C 16.00,17.00 16.00,121.00 16.00,121.00
             16.00,121.00 120.00,121.00 120.00,121.00
             120.00,121.00 120.00,17.00 120.00,17.00
             120.00,17.00 16.00,17.00 16.00,17.00 Z
           M 358.28,34.00
           C 353.73,43.01 355.00,53.19 355.00,63.00
             355.00,63.00 355.00,82.00 355.00,82.00
             355.00,96.59 355.47,111.54 372.00,117.45
             375.13,118.57 377.71,118.91 381.00,118.99
             384.43,119.06 387.67,118.99 391.00,118.07
             412.79,112.10 410.00,88.43 410.00,71.00
             410.00,53.71 413.25,29.20 393.00,21.71
             389.65,20.47 387.55,20.10 384.00,20.16
             384.00,20.16 377.00,20.16 377.00,20.16
             368.12,22.04 362.44,25.75 358.28,34.00 Z" />
</svg>
